<svg width="692" height="874" viewBox="0 0 692 874" fill="none" xmlns="http://www.w3.org/2000/svg">
<rect width="692" height="874" fill="white"/>
<path d="M32.5365 437.882L29.8619 433.068L25.0476 439.487L22.373 446.441L19.1635 457.674L16.4889 467.303L14.3492 472.652L13.8143 478.536L12.7444 483.351L11.6746 489.77L11.1397 494.049L9.53492 501.538L9 505.817V535.773V555.565L13.2794 587.66L22.373 620.29L37.8857 658.805L61.4222 699.459L80.6794 724.6L100.471 745.462L124.008 766.324L147.544 784.511L180.71 804.303L216.014 820.886L250.249 832.119L278.6 838.538L303.206 842.817L319.789 843.887H362.048L388.259 841.213L420.889 834.794L453.519 825.7L478.66 815.536L508.616 801.094L543.386 779.162L574.946 752.951L589.924 737.973L601.692 724.6L619.344 703.738L640.206 671.108L658.929 633.663L671.232 599.428L676.046 582.311L679.79 562.519L681.93 546.471L683 530.959V515.446V495.119L682.465 479.606L680.325 461.419L677.116 442.162L672.302 421.3L666.952 401.508L656.789 372.087L645.021 345.876L634.857 326.619L625.763 310.571L614.53 292.919L603.832 277.941L594.203 266.173L588.319 259.754L584.04 257.614L581.9 258.684V267.243V278.476L580.83 283.825L578.156 295.594L575.481 304.687L572.806 312.176L567.457 322.34L562.108 331.433L555.154 341.062L546.595 350.155L539.106 357.109L529.478 365.133L521.989 369.413L510.756 374.762L501.662 376.901H494.173L489.359 375.832L485.614 374.227L482.405 371.552L479.73 367.808L477.056 362.994L475.451 358.179L474.381 352.295L473.846 340.527L474.381 332.503L475.451 324.479L477.056 315.921L479.195 304.152L484.01 288.64L486.684 275.801L488.824 264.568L490.429 256.009L490.964 245.846V220.17L490.429 205.727L487.219 191.284L482.94 173.632L474.916 153.84L461.008 126.559L447.635 105.162L433.192 85.9046L419.819 69.857L403.237 52.7396L392.003 42.0412L381.305 33.4824L370.606 25.4586L358.838 18.5046L351.884 14.2253L344.395 11.0158L340.116 9.411L337.976 9.94592L336.906 12.0856L337.976 15.83L344.93 32.9475L349.21 44.1808L350.279 51.1348V57.0189L349.744 74.1364L349.21 81.6253L348.14 86.9745L347.605 93.9285L345.465 102.487L341.186 115.325L335.837 126.024L330.487 135.652L324.603 144.211L316.579 156.514L304.276 172.562L294.113 185.935L285.019 197.703L273.251 214.286L264.157 228.728L255.598 243.171L246.505 259.754L239.551 273.127L234.202 284.895L229.387 296.128L225.643 306.827L221.363 311.641H218.154H215.479L212.27 308.967L207.99 305.222L197.827 295.059L185.524 277.406L180.71 267.243L175.895 253.335L173.221 239.427L171.616 224.984V215.89L172.151 209.471L173.221 201.982L174.29 195.028L175.36 190.749L176.965 182.19L179.105 176.306L181.779 173.097L183.384 167.747L183.919 164.538L182.849 163.468H181.779L180.175 164.538L178.035 166.143L174.825 168.282L157.173 182.19L147.01 192.354L136.311 204.657L127.752 215.355L121.868 223.379L113.31 237.287L105.821 249.59L100.471 260.289L88.1683 287.57L82.819 303.617C80.5011 310.036 75.9721 323.088 76.4 323.944C76.8279 324.8 74.4386 334.286 73.1905 338.922L71.5857 348.551L70.5159 357.644L69.446 366.738V379.576L69.981 411.136L74.2603 434.138L79.0746 450.186L83.354 464.628L84.4238 473.187V478.001L82.2841 480.141L79.0746 481.211H75.3302L69.981 478.536L66.2365 475.862L61.9571 473.187L57.1429 468.908L51.2587 463.559L45.9095 457.674L42.1651 453.93L36.8159 445.906L32.5365 437.882Z" fill="#FE6301" stroke="#C72900" stroke-width="18"/>
<path d="M99.5561 522.904L97.6542 519.478L94.2307 524.046L92.3287 528.994L90.0464 536.987L88.1445 543.838L86.6229 547.644L86.2425 551.831L85.4818 555.256L84.721 559.824L84.3406 562.869L83.1994 568.197L82.819 571.242V592.557V606.64L85.8621 629.477L92.3287 652.694L103.36 680.099L120.097 709.025L133.791 726.914L147.865 741.758L164.602 756.603L181.34 769.544L204.924 783.626L230.029 795.425L254.374 803.418L274.535 807.986L292.032 811.031L303.824 811.792H333.875L352.514 809.889L375.718 805.321L398.921 798.851L416.8 791.619L438.101 781.343L462.827 765.737L485.27 747.087L495.92 736.43L504.289 726.914L516.842 712.07L531.677 688.853L544.99 662.21L553.739 637.85L557.163 625.67L559.826 611.588L561.347 600.169L562.108 589.131V578.093V563.63L561.728 552.592L560.206 539.651L557.924 525.949L554.5 511.105L550.696 497.022L543.469 476.088L535.1 457.438L527.873 443.736L521.406 432.317L513.418 419.757L505.811 409.1L498.964 400.726L494.779 396.159L491.736 394.636L490.215 395.397V401.487V409.48L489.454 413.286L487.552 421.66L485.65 428.13L483.748 433.459L479.944 440.691L476.14 447.161L471.195 454.012L465.109 460.483L459.784 465.431L452.937 471.14L447.611 474.185L439.623 477.991L433.156 479.514H427.831L424.407 478.752L421.745 477.611L419.462 475.707L417.56 473.043L415.659 469.618L414.517 466.192L413.757 462.005L413.376 453.632L413.757 447.922L414.517 442.213L415.659 436.123L417.18 427.75L420.604 416.712L422.506 407.577L424.027 399.584L425.168 393.494L425.549 386.263V367.993L425.168 357.716L422.886 347.44L419.843 334.879L414.137 320.797L404.247 301.385L394.737 286.16L384.467 272.458L374.957 261.04L363.165 248.86L355.177 241.248L347.569 235.158L339.961 229.449L331.593 224.501L326.648 221.456L321.322 219.172L318.279 218.03L316.758 218.411L315.997 219.933L316.758 222.597L321.703 234.777L324.746 242.77L325.507 247.718V251.905L325.126 264.085L324.746 269.413L323.985 273.219L323.605 278.167L322.083 284.257L319.04 293.392L315.236 301.004L311.432 307.856L307.248 313.945L301.542 322.7L292.793 334.118L285.566 343.634L279.099 352.007L270.731 363.806L264.264 374.083L258.178 384.359L251.711 396.159L246.766 405.674L242.962 414.048L239.539 422.041L236.876 429.653L233.833 433.078H231.551H229.649L227.366 431.175L224.323 428.511L217.096 421.279L208.347 408.719L204.924 401.487L201.5 391.591L199.598 381.695L198.457 371.419V364.948L198.837 360.381L199.598 355.052L200.359 350.104L201.12 347.059L202.261 340.969L203.782 336.782L205.684 334.499L206.826 330.693L207.206 328.409L206.445 327.648H205.684L204.543 328.409L203.022 329.551L200.739 331.073L188.187 340.969L180.959 348.201L173.351 356.955L167.265 364.567L163.081 370.277L156.995 380.173L151.669 388.927L147.865 396.539L139.116 415.951L135.313 427.369C133.664 431.937 130.444 441.224 130.748 441.833C131.052 442.442 129.353 449.191 128.466 452.49L127.324 459.341L126.564 465.811L125.803 472.282V481.417L126.183 503.873L129.226 520.24L132.65 531.658L135.693 541.935L136.454 548.025V551.45L134.932 552.973L132.65 553.734H129.987L126.183 551.831L123.521 549.928L120.477 548.025L117.054 544.98L112.87 541.174L109.066 536.987L106.403 534.322L102.599 528.613L99.5561 522.904Z" fill="#FF9A00"/>
<path d="M207.067 585.403L206.078 583.619L204.297 585.998L203.308 588.574L202.121 592.736L201.132 596.304L200.34 598.286L200.142 600.466L199.747 602.25L199.351 604.628L199.153 606.214L198.56 608.988L198.362 610.574V621.673V629.006L199.945 640.898L203.308 652.988L209.045 667.258L217.75 682.321L224.872 691.636L232.192 699.365L240.897 707.095L249.601 713.834L261.867 721.167L274.924 727.311L287.586 731.473L298.071 733.851L307.172 735.437L313.304 735.833H328.933L338.627 734.842L350.695 732.464L362.763 729.095L372.062 725.329L383.14 719.978L396 711.852L407.672 702.14L413.212 696.591L417.564 691.636L424.092 683.906L431.808 671.816L438.732 657.943L443.283 645.258L445.063 638.916L446.448 631.583L447.239 625.637L447.635 619.889V614.142V606.61L447.437 600.862L446.646 594.124L445.459 586.989L443.678 579.259L441.7 571.926L437.941 561.025L433.589 551.314L429.83 544.179L426.467 538.233L422.312 531.692L418.355 526.143L414.794 521.783L412.618 519.404L411.035 518.612L410.244 519.008V522.179V526.341L409.848 528.323L408.859 532.683L407.87 536.053L406.881 538.827L404.902 542.593L402.924 545.962L400.352 549.53L397.187 552.899L394.417 555.476L390.856 558.449L388.086 560.034L383.932 562.016L380.569 562.809H377.799L376.018 562.413L374.634 561.818L373.447 560.827L372.457 559.44L371.468 557.656L370.875 555.872L370.479 553.692L370.281 549.332L370.479 546.359L370.875 543.386L371.468 540.215L372.26 535.855L374.04 530.107L375.029 525.35L375.821 521.188L376.414 518.017L376.612 514.251V504.738L376.414 499.387L375.227 494.035L373.644 487.495L370.677 480.162L365.533 470.054L360.587 462.126L355.246 454.991L350.3 449.045L344.167 442.703L340.012 438.739L336.056 435.568L332.099 432.595L327.746 430.018L325.175 428.433L322.405 427.244L320.822 426.649L320.031 426.847L319.635 427.64L320.031 429.027L322.603 435.37L324.185 439.532L324.581 442.108V444.288L324.383 450.631L324.185 453.405L323.79 455.387L323.592 457.964L322.801 461.135L321.218 465.892L319.24 469.856L317.261 473.423L315.085 476.594L312.117 481.153L307.567 487.099L303.808 492.053L300.445 496.414L296.093 502.558L292.73 507.909L289.564 513.26L286.201 519.404L283.629 524.359L281.651 528.719L279.87 532.882L278.485 536.845L276.903 538.629H275.716H274.727L273.539 537.638L271.957 536.251L268.198 532.485L263.648 525.945L261.867 522.179L260.087 517.026L259.097 511.873L258.504 506.522V503.152L258.702 500.774L259.097 497.999L259.493 495.423L259.889 493.837L260.482 490.666L261.274 488.486L262.263 487.297L262.856 485.315L263.054 484.126L262.659 483.729H262.263L261.669 484.126L260.878 484.72L259.691 485.513L253.162 490.666L249.404 494.432L245.447 498.99L242.281 502.954L240.105 505.927L236.94 511.08L234.17 515.639L232.192 519.603L227.642 529.71L225.663 535.656C224.806 538.035 223.131 542.871 223.289 543.188C223.447 543.505 222.564 547.019 222.102 548.737L221.509 552.305L221.113 555.674L220.717 559.043V563.8L220.915 575.493L222.498 584.016L224.278 589.962L225.861 595.313L226.257 598.484V600.268L225.465 601.061L224.278 601.457H222.894L220.915 600.466L219.53 599.475L217.948 598.484L216.167 596.899L213.991 594.917L212.013 592.736L210.628 591.349L208.649 588.376L207.067 585.403Z" fill="#FFE808"/>
<mask id="path-4-outside-1_10_351" maskUnits="userSpaceOnUse" x="111" y="228.411" width="425" height="645" fill="black">
<rect fill="white" x="111" y="228.411" width="425" height="645"/>
<path d="M448.946 831.411C448.946 845.218 437.753 856.411 423.946 856.411H258.946C245.139 856.411 233.946 845.218 233.946 831.411V821.411H448.946V831.411ZM447.946 516.411C448.498 516.411 448.946 516.859 448.946 517.411V807.411H233.946V516.411H447.946ZM504.05 245.411L505.605 256.297C447.369 251.555 428.082 263.928 400.12 293.185C474.655 306.692 509.353 313.666 514.871 321.161L514.946 321.682C477.196 314.967 445.106 309.051 396.946 328.845V398.411H297.946V383.275L287.946 379.911V358.87C272.214 362.214 255.588 367.53 239.184 375.64C214.837 387.679 199.832 409.947 190.86 433.701C181.886 457.46 179.446 481.478 179.446 494.682V655.204C181.091 656.063 182.373 657.565 182.923 659.433L205.302 735.433C206.623 739.917 203.261 744.411 198.587 744.411H136.004C131.271 744.411 127.903 739.81 129.332 735.298L153.398 659.298C153.923 657.638 155.028 656.283 156.446 655.424V494.682C156.446 479.325 159.19 452.456 169.343 425.574C179.499 398.688 197.564 370.562 228.99 355.023C248.895 345.181 269.057 339.029 287.946 335.404V267.411L297.946 270.307V245.411H504.05ZM382.946 419.411C419.396 419.411 448.946 448.96 448.946 485.411V502.411H233.946V485.411C233.946 448.96 263.495 419.411 299.946 419.411H382.946Z"/>
</mask>
<path d="M448.946 831.411C448.946 845.218 437.753 856.411 423.946 856.411H258.946C245.139 856.411 233.946 845.218 233.946 831.411V821.411H448.946V831.411ZM447.946 516.411C448.498 516.411 448.946 516.859 448.946 517.411V807.411H233.946V516.411H447.946ZM504.05 245.411L505.605 256.297C447.369 251.555 428.082 263.928 400.12 293.185C474.655 306.692 509.353 313.666 514.871 321.161L514.946 321.682C477.196 314.967 445.106 309.051 396.946 328.845V398.411H297.946V383.275L287.946 379.911V358.87C272.214 362.214 255.588 367.53 239.184 375.64C214.837 387.679 199.832 409.947 190.86 433.701C181.886 457.46 179.446 481.478 179.446 494.682V655.204C181.091 656.063 182.373 657.565 182.923 659.433L205.302 735.433C206.623 739.917 203.261 744.411 198.587 744.411H136.004C131.271 744.411 127.903 739.81 129.332 735.298L153.398 659.298C153.923 657.638 155.028 656.283 156.446 655.424V494.682C156.446 479.325 159.19 452.456 169.343 425.574C179.499 398.688 197.564 370.562 228.99 355.023C248.895 345.181 269.057 339.029 287.946 335.404V267.411L297.946 270.307V245.411H504.05ZM382.946 419.411C419.396 419.411 448.946 448.96 448.946 485.411V502.411H233.946V485.411C233.946 448.96 263.495 419.411 299.946 419.411H382.946Z" fill="white"/>
<path d="M448.946 831.411L465.946 831.411V831.411H448.946ZM423.946 856.411L423.946 873.411L423.946 873.411L423.946 856.411ZM233.946 831.411L216.946 831.411V831.411L233.946 831.411ZM233.946 821.411V804.411H216.946V821.411H233.946ZM448.946 821.411H465.946V804.411H448.946V821.411ZM447.946 516.411L447.951 499.411H447.946V516.411ZM448.946 517.411L465.946 517.411L448.946 517.411ZM448.946 807.411V824.411H465.946V807.411H448.946ZM233.946 807.411H216.946V824.411H233.946V807.411ZM233.946 516.411V499.411H216.946V516.411H233.946ZM504.05 245.411L520.88 243.007L518.795 228.411H504.05V245.411ZM505.605 256.297L504.225 273.241L525.444 274.968L522.434 253.893L505.605 256.297ZM400.12 293.185L387.83 281.44L366.001 304.279L397.088 309.913L400.12 293.185ZM514.871 321.161L531.697 318.735L531.088 314.516L528.561 311.083L514.871 321.161ZM514.946 321.682L511.968 338.42L535.129 342.54L531.772 319.256L514.946 321.682ZM396.946 328.845L390.483 313.121L379.946 317.452V328.845H396.946ZM396.946 398.411V415.411H413.946V398.411H396.946ZM297.946 398.411H280.946V415.411H297.946V398.411ZM297.946 383.275H314.946V371.058L303.367 367.163L297.946 383.275ZM287.946 379.911H270.946V392.128L282.525 396.024L287.946 379.911ZM287.946 358.87H304.946V337.877L284.411 342.241L287.946 358.87ZM239.184 375.64L231.649 360.402L231.649 360.402L239.184 375.64ZM190.86 433.701L174.956 427.694L174.956 427.694L190.86 433.701ZM179.446 494.682L162.446 494.682V494.682H179.446ZM179.446 655.204H162.446V665.507L171.579 670.274L179.446 655.204ZM182.923 659.433L199.231 654.632L199.231 654.631L182.923 659.433ZM205.302 735.433L221.61 730.632L221.61 730.632L205.302 735.433ZM198.587 744.411L198.587 761.411L198.588 761.411L198.587 744.411ZM136.004 744.411L136.004 761.411H136.004V744.411ZM129.332 735.298L145.538 740.43L145.538 740.43L129.332 735.298ZM153.398 659.298L137.191 654.166L137.191 654.166L153.398 659.298ZM156.446 655.424L165.255 669.964L173.446 665.001V655.424H156.446ZM156.446 494.682L139.446 494.682V494.682H156.446ZM169.343 425.574L153.44 419.567L153.44 419.567L169.343 425.574ZM228.99 355.023L221.455 339.784L221.455 339.784L228.99 355.023ZM287.946 335.404L291.15 352.099L304.946 349.452V335.404H287.946ZM287.946 267.411L292.675 251.082L270.946 244.788V267.411H287.946ZM297.946 270.307L293.216 286.636L314.946 292.93V270.307H297.946ZM297.946 245.411V228.411H280.946V245.411H297.946ZM382.946 419.411L382.946 402.411H382.946V419.411ZM448.946 485.411L465.946 485.411L448.946 485.411ZM448.946 502.411V519.411H465.946V502.411H448.946ZM233.946 502.411H216.946V519.411H233.946V502.411ZM233.946 485.411H216.946H233.946ZM448.946 831.411L431.946 831.411C431.946 835.829 428.364 839.411 423.946 839.411L423.946 856.411L423.946 873.411C447.141 873.411 465.946 854.607 465.946 831.411L448.946 831.411ZM423.946 856.411V839.411H258.946V856.411V873.411H423.946V856.411ZM258.946 856.411V839.411C254.528 839.411 250.946 835.829 250.946 831.411L233.946 831.411L216.946 831.411C216.946 854.607 235.75 873.411 258.946 873.411V856.411ZM233.946 831.411H250.946V821.411H233.946H216.946V831.411H233.946ZM233.946 821.411V838.411H448.946V821.411V804.411H233.946V821.411ZM448.946 821.411H431.946V831.411H448.946H465.946V821.411H448.946ZM447.946 516.411L447.941 533.411C439.113 533.408 431.946 526.253 431.946 517.411L448.946 517.411L465.946 517.411C465.946 507.465 457.883 499.414 447.951 499.411L447.946 516.411ZM448.946 517.411H431.946V807.411H448.946H465.946V517.411H448.946ZM448.946 807.411V790.411H233.946V807.411V824.411H448.946V807.411ZM233.946 807.411H250.946V516.411H233.946H216.946V807.411H233.946ZM233.946 516.411V533.411H447.946V516.411V499.411H233.946V516.411ZM504.05 245.411L487.221 247.815L488.776 258.7L505.605 256.297L522.434 253.893L520.88 243.007L504.05 245.411ZM505.605 256.297L506.985 239.353C476.744 236.89 454.359 238.641 435.267 246.179C416.092 253.75 402.174 266.431 387.83 281.44L400.12 293.185L412.409 304.931C426.027 290.683 435.734 282.549 447.752 277.804C459.853 273.026 476.23 270.961 504.225 273.241L505.605 256.297ZM400.12 293.185L397.088 309.913C434.461 316.686 461.323 321.729 479.506 325.981C488.636 328.116 495.008 329.924 499.203 331.474C501.296 332.247 502.433 332.807 502.929 333.093C503.6 333.479 502.475 332.998 501.18 331.239L514.871 321.161L528.561 311.083C525.887 307.45 522.471 305.112 519.897 303.629C517.149 302.047 514.087 300.727 510.986 299.581C504.794 297.293 496.798 295.108 487.248 292.874C468.069 288.389 440.313 283.192 403.151 276.458L400.12 293.185ZM514.871 321.161L498.045 323.587L498.12 324.109L514.946 321.682L531.772 319.256L531.697 318.735L514.871 321.161ZM514.946 321.682L517.923 304.945C479.672 298.14 443.415 291.366 390.483 313.121L396.946 328.845L403.408 344.568C446.796 326.736 474.72 331.793 511.968 338.42L514.946 321.682ZM396.946 328.845H379.946V398.411H396.946H413.946V328.845H396.946ZM396.946 398.411V381.411H297.946V398.411V415.411H396.946V398.411ZM297.946 398.411H314.946V383.275H297.946H280.946V398.411H297.946ZM297.946 383.275L303.367 367.163L293.367 363.798L287.946 379.911L282.525 396.024L292.525 399.388L297.946 383.275ZM287.946 379.911H304.946V358.87H287.946H270.946V379.911H287.946ZM287.946 358.87L284.411 342.241C267.492 345.838 249.493 351.579 231.649 360.402L239.184 375.64L246.719 390.879C261.683 383.48 276.937 378.59 291.48 375.499L287.946 358.87ZM239.184 375.64L231.649 360.402C202.075 375.025 184.806 401.617 174.956 427.694L190.86 433.701L206.763 439.708C214.858 418.277 227.599 400.334 246.719 390.879L239.184 375.64ZM190.86 433.701L174.956 427.694C165.111 453.761 162.446 479.886 162.446 494.682L179.446 494.682L196.446 494.682C196.446 483.069 198.661 461.159 206.763 439.708L190.86 433.701ZM179.446 494.682H162.446V655.204H179.446H196.446V494.682H179.446ZM179.446 655.204L171.579 670.274C169.243 669.055 167.403 666.91 166.616 664.236L182.923 659.433L199.231 654.631C197.343 648.22 192.94 643.071 187.312 640.134L179.446 655.204ZM182.923 659.433L166.616 664.235L188.995 740.235L205.302 735.433L221.61 730.632L199.231 654.632L182.923 659.433ZM205.302 735.433L188.995 740.235C187.108 733.83 191.909 727.411 198.587 727.411L198.587 744.411L198.588 761.411C214.613 761.41 226.137 746.004 221.61 730.632L205.302 735.433ZM198.587 744.411V727.411H136.004V744.411V761.411H198.587V744.411ZM136.004 744.411L136.005 727.411C142.768 727.411 147.58 733.984 145.538 740.43L129.332 735.298L113.125 730.166C108.226 745.637 119.774 761.41 136.004 761.411L136.004 744.411ZM129.332 735.298L145.538 740.43L169.605 664.43L153.398 659.298L137.191 654.166L113.125 730.166L129.332 735.298ZM153.398 659.298L169.605 664.43C168.852 666.807 167.264 668.746 165.255 669.964L156.446 655.424L147.637 640.884C142.792 643.819 138.995 648.47 137.191 654.166L153.398 659.298ZM156.446 655.424H173.446V494.682H156.446H139.446V655.424H156.446ZM156.446 494.682L173.446 494.682C173.446 480.916 175.965 456.154 185.247 431.581L169.343 425.574L153.44 419.567C142.415 448.757 139.446 477.734 139.446 494.682L156.446 494.682ZM169.343 425.574L185.247 431.581C194.53 407.004 210.335 383.212 236.525 370.262L228.99 355.023L221.455 339.784C184.793 357.912 164.467 390.371 153.44 419.567L169.343 425.574ZM228.99 355.023L236.525 370.262C254.87 361.191 273.542 355.479 291.15 352.099L287.946 335.404L284.742 318.709C264.571 322.58 242.92 329.171 221.455 339.784L228.99 355.023ZM287.946 335.404H304.946V267.411H287.946H270.946V335.404H287.946ZM287.946 267.411L283.216 283.74L293.216 286.636L297.946 270.307L302.675 253.979L292.675 251.082L287.946 267.411ZM297.946 270.307H314.946V245.411H297.946H280.946V270.307H297.946ZM297.946 245.411V262.411H504.05V245.411V228.411H297.946V245.411ZM382.946 419.411L382.946 436.411C410.008 436.411 431.946 458.349 431.946 485.411L448.946 485.411L465.946 485.411C465.946 439.571 428.785 402.411 382.946 402.411L382.946 419.411ZM448.946 485.411H431.946V502.411H448.946H465.946V485.411H448.946ZM448.946 502.411V485.411H233.946V502.411V519.411H448.946V502.411ZM233.946 502.411H250.946V485.411H233.946H216.946V502.411H233.946ZM233.946 485.411L250.946 485.411C250.946 458.349 272.884 436.411 299.946 436.411V419.411V402.411C254.106 402.411 216.946 439.571 216.946 485.411L233.946 485.411ZM299.946 419.411V436.411H382.946V419.411V402.411H299.946V419.411Z" fill="black" mask="url(#path-4-outside-1_10_351)"/>
</svg>
