<svg width="692" height="861" viewBox="0 0 692 861" fill="none" xmlns="http://www.w3.org/2000/svg">
<path d="M32.5365 437.882L29.8619 433.068L25.0476 439.487L22.373 446.441L19.1635 457.674L16.4889 467.303L14.3492 472.652L13.8143 478.536L12.7444 483.351L11.6746 489.77L11.1397 494.049L9.53492 501.538L9 505.817V535.773V555.565L13.2794 587.66L22.373 620.29L37.8857 658.805L61.4222 699.459L80.6794 724.6L100.471 745.462L124.008 766.324L147.544 784.511L180.71 804.303L216.014 820.886L250.249 832.119L278.6 838.538L303.206 842.817L319.789 843.887H362.048L388.259 841.213L420.889 834.794L453.519 825.7L478.66 815.536L508.616 801.094L543.386 779.162L574.946 752.951L589.924 737.973L601.692 724.6L619.344 703.738L640.206 671.108L658.929 633.663L671.232 599.428L676.046 582.311L679.79 562.519L681.93 546.471L683 530.959V515.446V495.119L682.465 479.606L680.325 461.419L677.116 442.162L672.302 421.3L666.952 401.508L656.789 372.087L645.021 345.876L634.857 326.619L625.763 310.571L614.53 292.919L603.832 277.941L594.203 266.173L588.319 259.754L584.04 257.614L581.9 258.684V267.243V278.476L580.83 283.825L578.156 295.594L575.481 304.687L572.806 312.176L567.457 322.34L562.108 331.433L555.154 341.062L546.595 350.155L539.106 357.109L529.478 365.133L521.989 369.413L510.756 374.762L501.662 376.901H494.173L489.359 375.832L485.614 374.227L482.405 371.552L479.73 367.808L477.056 362.994L475.451 358.179L474.381 352.295L473.846 340.527L474.381 332.503L475.451 324.479L477.056 315.921L479.195 304.152L484.01 288.64L486.684 275.801L488.824 264.568L490.429 256.009L490.964 245.846V220.17L490.429 205.727L487.219 191.284L482.94 173.632L474.916 153.84L461.008 126.559L447.635 105.162L433.192 85.9046L419.819 69.857L403.237 52.7396L392.003 42.0412L381.305 33.4824L370.606 25.4586L358.838 18.5046L351.884 14.2253L344.395 11.0158L340.116 9.411L337.976 9.94592L336.906 12.0856L337.976 15.83L344.93 32.9475L349.21 44.1808L350.279 51.1348V57.0189L349.744 74.1364L349.21 81.6253L348.14 86.9745L347.605 93.9285L345.465 102.487L341.186 115.325L335.837 126.024L330.487 135.652L324.603 144.211L316.579 156.514L304.276 172.562L294.113 185.935L285.019 197.703L273.251 214.286L264.157 228.728L255.598 243.171L246.505 259.754L239.551 273.127L234.202 284.895L229.387 296.128L225.643 306.827L221.363 311.641H218.154H215.479L212.27 308.967L207.99 305.222L197.827 295.059L185.524 277.406L180.71 267.243L175.895 253.335L173.221 239.427L171.616 224.984V215.89L172.151 209.471L173.221 201.982L174.29 195.028L175.36 190.749L176.965 182.19L179.105 176.306L181.779 173.097L183.384 167.747L183.919 164.538L182.849 163.468H181.779L180.175 164.538L178.035 166.143L174.825 168.282L157.173 182.19L147.01 192.354L136.311 204.657L127.752 215.355L121.868 223.379L113.31 237.287L105.821 249.59L100.471 260.289L88.1683 287.57L82.819 303.617C80.5011 310.036 75.9721 323.088 76.4 323.944C76.8279 324.8 74.4386 334.286 73.1905 338.922L71.5857 348.551L70.5159 357.644L69.446 366.738V379.576L69.981 411.136L74.2603 434.138L79.0746 450.186L83.354 464.628L84.4238 473.187V478.001L82.2841 480.141L79.0746 481.211H75.3302L69.981 478.536L66.2365 475.862L61.9571 473.187L57.1429 468.908L51.2587 463.559L45.9095 457.674L42.1651 453.93L36.8159 445.906L32.5365 437.882Z" fill="#FE6301" stroke="#C72900" stroke-width="18"/>
<path d="M99.5561 522.904L97.6542 519.478L94.2307 524.046L92.3287 528.994L90.0464 536.987L88.1445 543.838L86.6229 547.644L86.2425 551.831L85.4818 555.256L84.721 559.824L84.3406 562.869L83.1994 568.197L82.819 571.242V592.557V606.64L85.8621 629.477L92.3287 652.694L103.36 680.099L120.097 709.025L133.791 726.914L147.865 741.758L164.602 756.603L181.34 769.544L204.924 783.626L230.029 795.425L254.374 803.418L274.535 807.986L292.032 811.031L303.824 811.792H333.875L352.514 809.889L375.718 805.321L398.921 798.851L416.8 791.619L438.101 781.343L462.827 765.737L485.27 747.087L495.92 736.43L504.289 726.914L516.842 712.07L531.677 688.853L544.99 662.21L553.739 637.85L557.163 625.67L559.826 611.588L561.347 600.169L562.108 589.131V578.093V563.63L561.728 552.592L560.206 539.651L557.924 525.949L554.5 511.105L550.696 497.022L543.469 476.088L535.1 457.438L527.873 443.736L521.406 432.317L513.418 419.757L505.811 409.1L498.964 400.726L494.779 396.159L491.736 394.636L490.215 395.397V401.487V409.48L489.454 413.286L487.552 421.66L485.65 428.13L483.748 433.459L479.944 440.691L476.14 447.161L471.195 454.012L465.109 460.483L459.784 465.431L452.937 471.14L447.611 474.185L439.623 477.991L433.156 479.514H427.831L424.407 478.752L421.745 477.611L419.462 475.707L417.56 473.043L415.659 469.618L414.517 466.192L413.757 462.005L413.376 453.632L413.757 447.922L414.517 442.213L415.659 436.123L417.18 427.75L420.604 416.712L422.506 407.577L424.027 399.584L425.168 393.494L425.549 386.263V367.993L425.168 357.716L422.886 347.44L419.843 334.879L414.137 320.797L404.247 301.385L394.737 286.16L384.467 272.458L374.957 261.04L363.165 248.86L355.177 241.248L347.569 235.158L339.961 229.449L331.593 224.501L326.648 221.456L321.322 219.172L318.279 218.03L316.758 218.411L315.997 219.933L316.758 222.597L321.703 234.777L324.746 242.77L325.507 247.718V251.905L325.126 264.085L324.746 269.413L323.985 273.219L323.605 278.167L322.083 284.257L319.04 293.392L315.236 301.004L311.432 307.856L307.248 313.945L301.542 322.7L292.793 334.118L285.566 343.634L279.099 352.007L270.731 363.806L264.264 374.083L258.178 384.359L251.711 396.159L246.766 405.674L242.962 414.048L239.539 422.041L236.876 429.653L233.833 433.078H231.551H229.649L227.366 431.175L224.323 428.511L217.096 421.279L208.347 408.719L204.924 401.487L201.5 391.591L199.598 381.695L198.457 371.419V364.948L198.837 360.381L199.598 355.052L200.359 350.104L201.12 347.059L202.261 340.969L203.782 336.782L205.684 334.499L206.826 330.693L207.206 328.409L206.445 327.648H205.684L204.543 328.409L203.022 329.551L200.739 331.073L188.187 340.969L180.959 348.201L173.351 356.955L167.265 364.567L163.081 370.277L156.995 380.173L151.669 388.927L147.865 396.539L139.116 415.951L135.313 427.369C133.664 431.937 130.444 441.224 130.748 441.833C131.052 442.442 129.353 449.191 128.466 452.49L127.324 459.341L126.564 465.811L125.803 472.282V481.417L126.183 503.873L129.226 520.24L132.65 531.658L135.693 541.935L136.454 548.025V551.45L134.932 552.973L132.65 553.734H129.987L126.183 551.831L123.521 549.928L120.477 548.025L117.054 544.98L112.87 541.174L109.066 536.987L106.403 534.322L102.599 528.613L99.5561 522.904Z" fill="#FF9A00"/>
<path d="M207.067 585.403L206.078 583.619L204.297 585.998L203.308 588.574L202.121 592.736L201.132 596.304L200.34 598.286L200.142 600.466L199.747 602.25L199.351 604.628L199.153 606.214L198.56 608.988L198.362 610.574V621.673V629.006L199.945 640.898L203.308 652.988L209.045 667.258L217.75 682.321L224.872 691.636L232.192 699.365L240.897 707.095L249.601 713.834L261.867 721.167L274.924 727.311L287.586 731.473L298.071 733.851L307.172 735.437L313.304 735.833H328.933L338.627 734.842L350.695 732.464L362.763 729.095L372.062 725.329L383.14 719.978L396 711.852L407.672 702.14L413.212 696.591L417.564 691.636L424.092 683.906L431.808 671.816L438.732 657.943L443.283 645.258L445.063 638.916L446.448 631.583L447.239 625.637L447.635 619.889V614.142V606.61L447.437 600.862L446.646 594.124L445.459 586.989L443.678 579.259L441.7 571.926L437.941 561.025L433.589 551.314L429.83 544.179L426.467 538.233L422.312 531.692L418.355 526.143L414.794 521.783L412.618 519.404L411.035 518.612L410.244 519.008V522.179V526.341L409.848 528.323L408.859 532.683L407.87 536.053L406.881 538.827L404.902 542.593L402.924 545.962L400.352 549.53L397.187 552.899L394.417 555.476L390.856 558.449L388.086 560.034L383.932 562.016L380.569 562.809H377.799L376.018 562.413L374.634 561.818L373.447 560.827L372.457 559.44L371.468 557.656L370.875 555.872L370.479 553.692L370.281 549.332L370.479 546.359L370.875 543.386L371.468 540.215L372.26 535.855L374.04 530.107L375.029 525.35L375.821 521.188L376.414 518.017L376.612 514.251V504.738L376.414 499.387L375.227 494.035L373.644 487.495L370.677 480.162L365.533 470.054L360.587 462.126L355.246 454.991L350.3 449.045L344.167 442.703L340.012 438.739L336.056 435.568L332.099 432.595L327.746 430.018L325.175 428.433L322.405 427.244L320.822 426.649L320.031 426.847L319.635 427.64L320.031 429.027L322.603 435.37L324.185 439.532L324.581 442.108V444.288L324.383 450.631L324.185 453.405L323.79 455.387L323.592 457.964L322.801 461.135L321.218 465.892L319.24 469.856L317.261 473.423L315.085 476.594L312.117 481.153L307.567 487.099L303.808 492.053L300.445 496.414L296.093 502.558L292.73 507.909L289.564 513.26L286.201 519.404L283.629 524.359L281.651 528.719L279.87 532.882L278.485 536.845L276.903 538.629H275.716H274.727L273.539 537.638L271.957 536.251L268.198 532.485L263.648 525.945L261.867 522.179L260.087 517.026L259.097 511.873L258.504 506.522V503.152L258.702 500.774L259.097 497.999L259.493 495.423L259.889 493.837L260.482 490.666L261.274 488.486L262.263 487.297L262.856 485.315L263.054 484.126L262.659 483.729H262.263L261.669 484.126L260.878 484.72L259.691 485.513L253.162 490.666L249.404 494.432L245.447 498.99L242.281 502.954L240.105 505.927L236.94 511.08L234.17 515.639L232.192 519.603L227.642 529.71L225.663 535.656C224.806 538.035 223.131 542.871 223.289 543.188C223.447 543.505 222.564 547.019 222.102 548.737L221.509 552.305L221.113 555.674L220.717 559.043V563.8L220.915 575.493L222.498 584.016L224.278 589.962L225.861 595.313L226.257 598.484V600.268L225.465 601.061L224.278 601.457H222.894L220.915 600.466L219.53 599.475L217.948 598.484L216.167 596.899L213.991 594.917L212.013 592.736L210.628 591.349L208.649 588.376L207.067 585.403Z" fill="#FFE808"/>
<mask id="path-4-outside-1_10_369" maskUnits="userSpaceOnUse" x="112" y="215.411" width="425" height="645" fill="black">
<rect fill="white" x="112" y="215.411" width="425" height="645"/>
<path d="M449.946 818.411C449.946 832.218 438.753 843.411 424.946 843.411H259.946C246.139 843.411 234.946 832.218 234.946 818.411V808.411H449.946V818.411ZM448.946 503.411C449.498 503.411 449.946 503.859 449.946 504.411V794.411H234.946V503.411H448.946ZM505.05 232.411L506.605 243.297C448.369 238.555 429.082 250.928 401.12 280.185C475.655 293.692 510.353 300.666 515.871 308.161L515.946 308.682C478.196 301.967 446.106 296.051 397.946 315.845V385.411H298.946V370.275L288.946 366.911V345.87C273.214 349.214 256.588 354.53 240.184 362.64C215.837 374.679 200.832 396.947 191.86 420.701C182.886 444.46 180.446 468.478 180.446 481.682V642.204C182.091 643.063 183.373 644.565 183.923 646.433L206.302 722.433C207.623 726.917 204.261 731.411 199.587 731.411H137.004C132.271 731.411 128.903 726.81 130.332 722.298L154.398 646.298C154.923 644.638 156.028 643.283 157.446 642.424V481.682C157.446 466.325 160.19 439.456 170.343 412.574C180.499 385.688 198.564 357.562 229.99 342.023C249.895 332.181 270.057 326.029 288.946 322.404V254.411L298.946 257.307V232.411H505.05ZM383.946 406.411C420.396 406.411 449.946 435.96 449.946 472.411V489.411H234.946V472.411C234.946 435.96 264.495 406.411 300.946 406.411H383.946Z"/>
</mask>
<path d="M449.946 818.411C449.946 832.218 438.753 843.411 424.946 843.411H259.946C246.139 843.411 234.946 832.218 234.946 818.411V808.411H449.946V818.411ZM448.946 503.411C449.498 503.411 449.946 503.859 449.946 504.411V794.411H234.946V503.411H448.946ZM505.05 232.411L506.605 243.297C448.369 238.555 429.082 250.928 401.12 280.185C475.655 293.692 510.353 300.666 515.871 308.161L515.946 308.682C478.196 301.967 446.106 296.051 397.946 315.845V385.411H298.946V370.275L288.946 366.911V345.87C273.214 349.214 256.588 354.53 240.184 362.64C215.837 374.679 200.832 396.947 191.86 420.701C182.886 444.46 180.446 468.478 180.446 481.682V642.204C182.091 643.063 183.373 644.565 183.923 646.433L206.302 722.433C207.623 726.917 204.261 731.411 199.587 731.411H137.004C132.271 731.411 128.903 726.81 130.332 722.298L154.398 646.298C154.923 644.638 156.028 643.283 157.446 642.424V481.682C157.446 466.325 160.19 439.456 170.343 412.574C180.499 385.688 198.564 357.562 229.99 342.023C249.895 332.181 270.057 326.029 288.946 322.404V254.411L298.946 257.307V232.411H505.05ZM383.946 406.411C420.396 406.411 449.946 435.96 449.946 472.411V489.411H234.946V472.411C234.946 435.96 264.495 406.411 300.946 406.411H383.946Z" fill="white"/>
<path d="M449.946 818.411L466.946 818.411V818.411H449.946ZM424.946 843.411L424.946 860.411L424.946 860.411L424.946 843.411ZM234.946 818.411L217.946 818.411V818.411L234.946 818.411ZM234.946 808.411V791.411H217.946V808.411H234.946ZM449.946 808.411H466.946V791.411H449.946V808.411ZM448.946 503.411L448.951 486.411H448.946V503.411ZM449.946 504.411L466.946 504.411L449.946 504.411ZM449.946 794.411V811.411H466.946V794.411H449.946ZM234.946 794.411H217.946V811.411H234.946V794.411ZM234.946 503.411V486.411H217.946V503.411H234.946ZM505.05 232.411L521.88 230.007L519.795 215.411H505.05V232.411ZM506.605 243.297L505.225 260.241L526.444 261.968L523.434 240.893L506.605 243.297ZM401.12 280.185L388.83 268.44L367.001 291.279L398.088 296.913L401.12 280.185ZM515.871 308.161L532.697 305.735L532.088 301.516L529.561 298.083L515.871 308.161ZM515.946 308.682L512.968 325.42L536.129 329.54L532.772 306.256L515.946 308.682ZM397.946 315.845L391.483 300.121L380.946 304.452V315.845H397.946ZM397.946 385.411V402.411H414.946V385.411H397.946ZM298.946 385.411H281.946V402.411H298.946V385.411ZM298.946 370.275H315.946V358.058L304.367 354.163L298.946 370.275ZM288.946 366.911H271.946V379.128L283.525 383.024L288.946 366.911ZM288.946 345.87H305.946V324.877L285.411 329.241L288.946 345.87ZM240.184 362.64L232.649 347.402L232.649 347.402L240.184 362.64ZM191.86 420.701L175.956 414.694L175.956 414.694L191.86 420.701ZM180.446 481.682L163.446 481.682V481.682H180.446ZM180.446 642.204H163.446V652.507L172.579 657.274L180.446 642.204ZM183.923 646.433L200.231 641.632L200.231 641.631L183.923 646.433ZM206.302 722.433L222.61 717.632L222.61 717.632L206.302 722.433ZM199.587 731.411L199.587 748.411L199.588 748.411L199.587 731.411ZM137.004 731.411L137.004 748.411H137.004V731.411ZM130.332 722.298L146.538 727.43L146.538 727.43L130.332 722.298ZM154.398 646.298L138.191 641.166L138.191 641.166L154.398 646.298ZM157.446 642.424L166.255 656.964L174.446 652.001V642.424H157.446ZM157.446 481.682L140.446 481.682V481.682H157.446ZM170.343 412.574L154.44 406.567L154.44 406.567L170.343 412.574ZM229.99 342.023L222.455 326.784L222.455 326.784L229.99 342.023ZM288.946 322.404L292.15 339.099L305.946 336.452V322.404H288.946ZM288.946 254.411L293.675 238.082L271.946 231.788V254.411H288.946ZM298.946 257.307L294.216 273.636L315.946 279.93V257.307H298.946ZM298.946 232.411V215.411H281.946V232.411H298.946ZM383.946 406.411L383.946 389.411H383.946V406.411ZM449.946 472.411L466.946 472.411L449.946 472.411ZM449.946 489.411V506.411H466.946V489.411H449.946ZM234.946 489.411H217.946V506.411H234.946V489.411ZM234.946 472.411H217.946H234.946ZM449.946 818.411L432.946 818.411C432.946 822.829 429.364 826.411 424.946 826.411L424.946 843.411L424.946 860.411C448.141 860.411 466.946 841.607 466.946 818.411L449.946 818.411ZM424.946 843.411V826.411H259.946V843.411V860.411H424.946V843.411ZM259.946 843.411V826.411C255.528 826.411 251.946 822.829 251.946 818.411L234.946 818.411L217.946 818.411C217.946 841.607 236.75 860.411 259.946 860.411V843.411ZM234.946 818.411H251.946V808.411H234.946H217.946V818.411H234.946ZM234.946 808.411V825.411H449.946V808.411V791.411H234.946V808.411ZM449.946 808.411H432.946V818.411H449.946H466.946V808.411H449.946ZM448.946 503.411L448.941 520.411C440.113 520.408 432.946 513.253 432.946 504.411L449.946 504.411L466.946 504.411C466.946 494.465 458.883 486.414 448.951 486.411L448.946 503.411ZM449.946 504.411H432.946V794.411H449.946H466.946V504.411H449.946ZM449.946 794.411V777.411H234.946V794.411V811.411H449.946V794.411ZM234.946 794.411H251.946V503.411H234.946H217.946V794.411H234.946ZM234.946 503.411V520.411H448.946V503.411V486.411H234.946V503.411ZM505.05 232.411L488.221 234.815L489.776 245.7L506.605 243.297L523.434 240.893L521.88 230.007L505.05 232.411ZM506.605 243.297L507.985 226.353C477.744 223.89 455.359 225.641 436.267 233.179C417.092 240.75 403.174 253.431 388.83 268.44L401.12 280.185L413.409 291.931C427.027 277.683 436.734 269.549 448.752 264.804C460.853 260.026 477.23 257.961 505.225 260.241L506.605 243.297ZM401.12 280.185L398.088 296.913C435.461 303.686 462.323 308.729 480.506 312.981C489.636 315.116 496.008 316.924 500.203 318.474C502.296 319.247 503.433 319.807 503.929 320.093C504.6 320.479 503.475 319.998 502.18 318.239L515.871 308.161L529.561 298.083C526.887 294.45 523.471 292.112 520.897 290.629C518.149 289.047 515.087 287.727 511.986 286.581C505.794 284.293 497.798 282.108 488.248 279.874C469.069 275.389 441.313 270.192 404.151 263.458L401.12 280.185ZM515.871 308.161L499.045 310.587L499.12 311.109L515.946 308.682L532.772 306.256L532.697 305.735L515.871 308.161ZM515.946 308.682L518.923 291.945C480.672 285.14 444.415 278.366 391.483 300.121L397.946 315.845L404.408 331.568C447.796 313.736 475.72 318.793 512.968 325.42L515.946 308.682ZM397.946 315.845H380.946V385.411H397.946H414.946V315.845H397.946ZM397.946 385.411V368.411H298.946V385.411V402.411H397.946V385.411ZM298.946 385.411H315.946V370.275H298.946H281.946V385.411H298.946ZM298.946 370.275L304.367 354.163L294.367 350.798L288.946 366.911L283.525 383.024L293.525 386.388L298.946 370.275ZM288.946 366.911H305.946V345.87H288.946H271.946V366.911H288.946ZM288.946 345.87L285.411 329.241C268.492 332.838 250.493 338.579 232.649 347.402L240.184 362.64L247.719 377.879C262.683 370.48 277.937 365.59 292.48 362.499L288.946 345.87ZM240.184 362.64L232.649 347.402C203.075 362.025 185.806 388.617 175.956 414.694L191.86 420.701L207.763 426.708C215.858 405.277 228.599 387.334 247.719 377.879L240.184 362.64ZM191.86 420.701L175.956 414.694C166.111 440.761 163.446 466.886 163.446 481.682L180.446 481.682L197.446 481.682C197.446 470.069 199.661 448.159 207.763 426.708L191.86 420.701ZM180.446 481.682H163.446V642.204H180.446H197.446V481.682H180.446ZM180.446 642.204L172.579 657.274C170.243 656.055 168.403 653.91 167.616 651.236L183.923 646.433L200.231 641.631C198.343 635.22 193.94 630.071 188.312 627.134L180.446 642.204ZM183.923 646.433L167.616 651.235L189.995 727.235L206.302 722.433L222.61 717.632L200.231 641.632L183.923 646.433ZM206.302 722.433L189.995 727.235C188.108 720.83 192.909 714.411 199.587 714.411L199.587 731.411L199.588 748.411C215.613 748.41 227.137 733.004 222.61 717.632L206.302 722.433ZM199.587 731.411V714.411H137.004V731.411V748.411H199.587V731.411ZM137.004 731.411L137.005 714.411C143.768 714.411 148.58 720.984 146.538 727.43L130.332 722.298L114.125 717.166C109.226 732.637 120.774 748.41 137.004 748.411L137.004 731.411ZM130.332 722.298L146.538 727.43L170.605 651.43L154.398 646.298L138.191 641.166L114.125 717.166L130.332 722.298ZM154.398 646.298L170.605 651.43C169.852 653.807 168.264 655.746 166.255 656.964L157.446 642.424L148.637 627.884C143.792 630.819 139.995 635.47 138.191 641.166L154.398 646.298ZM157.446 642.424H174.446V481.682H157.446H140.446V642.424H157.446ZM157.446 481.682L174.446 481.682C174.446 467.916 176.965 443.154 186.247 418.581L170.343 412.574L154.44 406.567C143.415 435.757 140.446 464.734 140.446 481.682L157.446 481.682ZM170.343 412.574L186.247 418.581C195.53 394.004 211.335 370.212 237.525 357.262L229.99 342.023L222.455 326.784C185.793 344.912 165.467 377.371 154.44 406.567L170.343 412.574ZM229.99 342.023L237.525 357.262C255.87 348.191 274.542 342.479 292.15 339.099L288.946 322.404L285.742 305.709C265.571 309.58 243.92 316.171 222.455 326.784L229.99 342.023ZM288.946 322.404H305.946V254.411H288.946H271.946V322.404H288.946ZM288.946 254.411L284.216 270.74L294.216 273.636L298.946 257.307L303.675 240.979L293.675 238.082L288.946 254.411ZM298.946 257.307H315.946V232.411H298.946H281.946V257.307H298.946ZM298.946 232.411V249.411H505.05V232.411V215.411H298.946V232.411ZM383.946 406.411L383.946 423.411C411.008 423.411 432.946 445.349 432.946 472.411L449.946 472.411L466.946 472.411C466.946 426.571 429.785 389.411 383.946 389.411L383.946 406.411ZM449.946 472.411H432.946V489.411H449.946H466.946V472.411H449.946ZM449.946 489.411V472.411H234.946V489.411V506.411H449.946V489.411ZM234.946 489.411H251.946V472.411H234.946H217.946V489.411H234.946ZM234.946 472.411L251.946 472.411C251.946 445.349 273.884 423.411 300.946 423.411V406.411V389.411C255.106 389.411 217.946 426.571 217.946 472.411L234.946 472.411ZM300.946 406.411V423.411H383.946V406.411V389.411H300.946V406.411Z" fill="black" mask="url(#path-4-outside-1_10_369)"/>
</svg>
