<svg width="395" height="619" viewBox="0 0 395 619" fill="none" xmlns="http://www.w3.org/2000/svg">
<rect width="395" height="619" fill="#1E1E1E"/>
<mask id="path-1-outside-1_0_1" maskUnits="userSpaceOnUse" x="-0.996643" y="0" width="396" height="619" fill="black">
<rect fill="white" x="-0.996643" width="396" height="619"/>
<path d="M323.949 590C323.949 603.807 312.756 615 298.949 615H133.949C120.142 615 108.949 603.807 108.949 590V580H323.949V590ZM322.949 275C323.501 275 323.949 275.448 323.949 276V566H108.949V275H322.949ZM379.053 4L380.608 14.8857C322.372 10.1439 303.085 22.5169 275.122 51.7744C349.658 65.2815 384.356 72.2553 389.873 79.75L389.949 80.2715C352.199 73.5557 320.109 67.6396 271.949 87.4336V157H172.949V141.864L162.949 138.5V117.459C147.217 120.803 130.591 126.119 114.187 134.229C89.8397 146.268 74.8347 168.536 65.8627 192.29C56.8888 216.049 54.4487 240.067 54.4487 253.271V413.793C56.0944 414.652 57.3758 416.153 57.9262 418.022L80.3051 494.022C81.6254 498.506 78.2644 503 73.5903 503H11.0082C6.27465 503 2.90539 498.399 4.33441 493.887L28.4008 417.887C28.9263 416.227 30.0309 414.872 31.4487 414.013V253.271C31.4487 237.914 34.1927 211.045 44.3461 184.163C54.5014 157.277 72.5671 129.151 103.993 113.612C123.898 103.77 144.06 97.6185 162.949 93.9932V26L172.949 28.8965V4H379.053ZM257.949 178C294.399 178 323.949 207.549 323.949 244V261H108.949V244C108.949 207.549 138.498 178 174.949 178H257.949Z"/>
</mask>
<path d="M323.949 590C323.949 603.807 312.756 615 298.949 615H133.949C120.142 615 108.949 603.807 108.949 590V580H323.949V590ZM322.949 275C323.501 275 323.949 275.448 323.949 276V566H108.949V275H322.949ZM379.053 4L380.608 14.8857C322.372 10.1439 303.085 22.5169 275.122 51.7744C349.658 65.2815 384.356 72.2553 389.873 79.75L389.949 80.2715C352.199 73.5557 320.109 67.6396 271.949 87.4336V157H172.949V141.864L162.949 138.5V117.459C147.217 120.803 130.591 126.119 114.187 134.229C89.8397 146.268 74.8347 168.536 65.8627 192.29C56.8888 216.049 54.4487 240.067 54.4487 253.271V413.793C56.0944 414.652 57.3758 416.153 57.9262 418.022L80.3051 494.022C81.6254 498.506 78.2644 503 73.5903 503H11.0082C6.27465 503 2.90539 498.399 4.33441 493.887L28.4008 417.887C28.9263 416.227 30.0309 414.872 31.4487 414.013V253.271C31.4487 237.914 34.1927 211.045 44.3461 184.163C54.5014 157.277 72.5671 129.151 103.993 113.612C123.898 103.77 144.06 97.6185 162.949 93.9932V26L172.949 28.8965V4H379.053ZM257.949 178C294.399 178 323.949 207.549 323.949 244V261H108.949V244C108.949 207.549 138.498 178 174.949 178H257.949Z" fill="white"/>
<path d="M323.949 590L327.949 590V590H323.949ZM133.949 615L133.949 619H133.949V615ZM108.949 590L104.949 590V590L108.949 590ZM108.949 580V576H104.949V580H108.949ZM323.949 580H327.949V576H323.949V580ZM322.949 275L322.949 271H322.949V275ZM323.949 276L327.949 276L323.949 276ZM323.949 566V570H327.949V566H323.949ZM108.949 566H104.949V570H108.949V566ZM108.949 275V271H104.949V275H108.949ZM379.053 4L383.013 3.43446L382.522 0H379.053V4ZM380.608 14.8857L380.283 18.8725L385.276 19.2791L384.568 14.3202L380.608 14.8857ZM275.122 51.7744L272.231 49.0107L267.095 54.3848L274.409 55.7103L275.122 51.7744ZM389.873 79.75L393.833 79.1791L393.689 78.1863L393.095 77.3786L389.873 79.75ZM389.949 80.2715L389.248 84.2097L394.698 85.1791L393.908 79.7006L389.949 80.2715ZM271.949 87.4336L270.428 83.7339L267.949 84.7529V87.4336H271.949ZM271.949 157V161H275.949V157H271.949ZM172.949 157H168.949V161H172.949V157ZM172.949 141.864H176.949V138.99L174.224 138.073L172.949 141.864ZM162.949 138.5H158.949V141.375L161.673 142.291L162.949 138.5ZM162.949 117.459H166.949V112.519L162.117 113.546L162.949 117.459ZM114.187 134.229L112.414 130.644L112.414 130.644L114.187 134.229ZM65.8627 192.29L62.1208 190.877L62.1208 190.877L65.8627 192.29ZM54.4487 253.271L50.4487 253.271V253.271H54.4487ZM54.4487 413.793H50.4487V416.217L52.5979 417.339L54.4487 413.793ZM57.9262 418.022L61.7633 416.893L61.7633 416.892L57.9262 418.022ZM80.3051 494.022L84.1422 492.893L84.1422 492.893L80.3051 494.022ZM4.33441 493.887L8.14778 495.094L8.14778 495.094L4.33441 493.887ZM28.4008 417.887L24.5874 416.679L24.5874 416.679L28.4008 417.887ZM31.4487 414.013L33.5215 417.434L35.4487 416.266V414.013H31.4487ZM31.4487 253.271L27.4487 253.271V253.271H31.4487ZM44.3461 184.163L40.6042 182.75L40.6042 182.75L44.3461 184.163ZM103.993 113.612L102.22 110.027L102.22 110.027L103.993 113.612ZM162.949 93.9932L163.703 97.9215L166.949 97.2985V93.9932H162.949ZM162.949 26L164.062 22.1579L158.949 20.677V26H162.949ZM172.949 28.8965L171.836 32.7386L176.949 34.2195V28.8965H172.949ZM172.949 4V0H168.949V4H172.949ZM323.949 244L327.949 244L323.949 244ZM323.949 261V265H327.949V261H323.949ZM108.949 261H104.949V265H108.949V261ZM108.949 244H104.949H108.949ZM174.949 178L174.949 174L174.949 174L174.949 178ZM323.949 590L319.949 590C319.949 601.598 310.547 611 298.949 611V615V619C314.965 619 327.949 606.016 327.949 590L323.949 590ZM298.949 615V611H133.949V615V619H298.949V615ZM133.949 615L133.949 611C122.351 611 112.949 601.598 112.949 590L108.949 590L104.949 590C104.949 606.016 117.932 619 133.949 619L133.949 615ZM108.949 590H112.949V580H108.949H104.949V590H108.949ZM108.949 580V584H323.949V580V576H108.949V580ZM323.949 580H319.949V590H323.949H327.949V580H323.949ZM322.949 275L322.949 279C321.292 279 319.949 277.657 319.949 276L323.949 276L327.949 276C327.949 273.239 325.71 271 322.949 271L322.949 275ZM323.949 276H319.949V566H323.949H327.949V276H323.949ZM323.949 566V562H108.949V566V570H323.949V566ZM108.949 566H112.949V275H108.949H104.949V566H108.949ZM108.949 275V279H322.949V275V271H108.949V275ZM379.053 4L375.093 4.56554L376.648 15.4513L380.608 14.8857L384.568 14.3202L383.013 3.43446L379.053 4ZM380.608 14.8857L380.932 10.8989C351.55 8.50652 331.463 10.3774 315.044 16.8598C298.605 23.3499 286.297 34.2925 272.231 49.0107L275.122 51.7744L278.014 54.5381C291.91 39.9988 303.227 30.1262 317.981 24.3009C332.755 18.4679 351.429 16.5232 380.283 18.8725L380.608 14.8857ZM275.122 51.7744L274.409 55.7103C311.702 62.4683 338.905 67.5705 357.469 71.9118C366.76 74.0846 373.753 76.0366 378.711 77.8685C381.189 78.7841 383.062 79.6346 384.42 80.4164C385.818 81.2218 386.429 81.8188 386.652 82.1214L389.873 79.75L393.095 77.3786C391.938 75.8076 390.258 74.5471 388.412 73.4839C386.525 72.3969 384.199 71.3675 381.484 70.3643C376.055 68.3587 368.68 66.3178 359.291 64.1219C340.492 59.7259 313.079 54.5876 275.836 47.8385L275.122 51.7744ZM389.873 79.75L385.914 80.3209L385.99 80.8424L389.949 80.2715L393.908 79.7006L393.833 79.1791L389.873 79.75ZM389.949 80.2715L390.649 76.3333C352.781 69.5965 319.711 63.4784 270.428 83.7339L271.949 87.4336L273.469 91.1333C320.506 71.8008 351.616 77.5149 389.248 84.2097L389.949 80.2715ZM271.949 87.4336H267.949V157H271.949H275.949V87.4336H271.949ZM271.949 157V153H172.949V157V161H271.949V157ZM172.949 157H176.949V141.864H172.949H168.949V157H172.949ZM172.949 141.864L174.224 138.073L164.224 134.709L162.949 138.5L161.673 142.291L171.673 145.655L172.949 141.864ZM162.949 138.5H166.949V117.459H162.949H158.949V138.5H162.949ZM162.949 117.459L162.117 113.546C146.106 116.95 129.157 122.365 112.414 130.644L114.187 134.229L115.96 137.815C132.025 129.872 148.328 124.656 163.78 121.372L162.949 117.459ZM114.187 134.229L112.414 130.644C86.837 143.291 71.2992 166.576 62.1208 190.877L65.8627 192.29L69.6047 193.703C78.3702 170.496 92.8425 149.246 115.96 137.815L114.187 134.229ZM65.8627 192.29L62.1208 190.877C52.9417 215.179 50.4487 239.692 50.4487 253.271L54.4487 253.271L58.4487 253.271C58.4487 240.441 60.8359 216.919 69.6047 193.703L65.8627 192.29ZM54.4487 253.271H50.4487V413.793H54.4487H58.4487V253.271H54.4487ZM54.4487 413.793L52.5979 417.339C53.3064 417.709 53.8534 418.352 54.0892 419.153L57.9262 418.022L61.7633 416.892C60.8981 413.955 58.8824 411.595 56.2995 410.247L54.4487 413.793ZM57.9262 418.022L54.0891 419.152L76.468 495.152L80.3051 494.022L84.1422 492.893L61.7633 416.893L57.9262 418.022ZM80.3051 494.022L76.468 495.152C77.0339 497.074 75.5932 499 73.5903 499V503V507C80.9356 507 86.2169 499.938 84.1422 492.893L80.3051 494.022ZM73.5903 503V499H11.0082V503V507H73.5903V503ZM11.0082 503V499C8.97923 499 7.53545 497.028 8.14778 495.094L4.33441 493.887L0.521039 492.679C-1.72466 499.771 3.57007 507 11.0082 507V503ZM4.33441 493.887L8.14778 495.094L32.2142 419.094L28.4008 417.887L24.5874 416.679L0.521039 492.679L4.33441 493.887ZM28.4008 417.887L32.2142 419.094C32.4388 418.385 32.9098 417.804 33.5215 417.434L31.4487 414.013L29.3759 410.592C27.1519 411.939 25.4137 414.07 24.5874 416.679L28.4008 417.887ZM31.4487 414.013H35.4487V253.271H31.4487H27.4487V414.013H31.4487ZM31.4487 253.271L35.4487 253.271C35.4487 238.288 38.1398 211.915 48.0881 185.576L44.3461 184.163L40.6042 182.75C30.2456 210.174 27.4487 237.54 27.4487 253.271L31.4487 253.271ZM44.3461 184.163L48.0881 185.576C58.0381 159.233 75.572 132.127 105.766 117.198L103.993 113.612L102.22 110.027C69.5622 126.175 50.9647 155.32 40.6042 182.75L44.3461 184.163ZM103.993 113.612L105.766 117.198C125.304 107.537 145.115 101.489 163.703 97.9215L162.949 93.9932L162.195 90.0649C143.004 93.748 122.492 100.003 102.22 110.027L103.993 113.612ZM162.949 93.9932H166.949V26H162.949H158.949V93.9932H162.949ZM162.949 26L161.836 29.8421L171.836 32.7386L172.949 28.8965L174.062 25.0544L164.062 22.1579L162.949 26ZM172.949 28.8965H176.949V4H172.949H168.949V28.8965H172.949ZM172.949 4V8H379.053V4V0H172.949V4ZM257.949 178V182C292.19 182 319.949 209.758 319.949 244L323.949 244L327.949 244C327.949 205.34 296.609 174 257.949 174V178ZM323.949 244H319.949V261H323.949H327.949V244H323.949ZM323.949 261V257H108.949V261V265H323.949V261ZM108.949 261H112.949V244H108.949H104.949V261H108.949ZM108.949 244L112.949 244C112.949 209.758 140.707 182 174.949 182L174.949 178L174.949 174C136.289 174 104.949 205.34 104.949 244L108.949 244ZM174.949 178V182H257.949V178V174H174.949V178Z" fill="black" mask="url(#path-1-outside-1_0_1)"/>
</svg>
